<?xml version="1.0" standalone="no"?>
<!DOCTYPE svg PUBLIC "-//W3C//DTD SVG 20010904//EN"
 "http://www.w3.org/TR/2001/REC-SVG-20010904/DTD/svg10.dtd">
<svg version="1.0"   xmlns="http://www.w3.org/2000/svg"
 width="205.000000pt" height="113.000000pt" viewBox="0 0 205.000000 113.000000"
 preserveAspectRatio="xMidYMid meet">

<g transform="translate(0.000000,113.000000) scale(0.100000,-0.100000)"
fill="white" stroke="none">
<path d="M372 1084 c-27 -19 -30 -74 -4 -96 29 -25 47 -27 88 -7 32 15 64 18
173 19 118 0 138 -2 167 -21 19 -11 34 -25 34 -30 0 -15 -122 -11 -139 5 -46
42 -121 15 -121 -43 0 -43 31 -65 77 -56 21 4 121 9 223 12 l184 4 -24 -26
-23 -25 -332 0 c-276 0 -334 2 -351 15 -30 23 -90 19 -108 -7 -21 -30 -20 -50
5 -82 23 -30 58 -34 93 -10 21 13 74 15 362 15 226 0 344 4 358 11 12 6 43 32
69 57 l48 46 437 5 437 5 0 110 0 110 -375 0 -375 0 -3 -77 -3 -78 -162 0
-162 0 -70 60 -70 60 -156 0 c-141 0 -159 2 -182 20 -30 24 -65 26 -95 4z m67
-37 c15 -19 -10 -53 -33 -44 -16 6 -22 38 -9 50 10 11 30 8 42 -6z m221 -117
c12 -7 12 -13 4 -27 -23 -38 -66 -19 -50 22 6 17 24 19 46 5z m-376 -116 c21
-8 21 -43 0 -51 -8 -3 -23 1 -31 10 -13 13 -14 19 -3 31 14 18 13 18 34 10z"/>
<path d="M1275 809 c-4 -6 -4 -31 0 -55 3 -25 3 -58 0 -74 l-7 -30 -313 0
c-266 0 -314 2 -325 15 -17 21 -73 19 -93 -3 -53 -58 26 -145 89 -97 16 12
113 14 666 15 l648 0 6 24 c3 14 3 30 -1 35 -4 7 -77 11 -209 11 l-204 0 4 68
c5 107 12 102 -131 102 -77 0 -126 -4 -130 -11z m-661 -184 c6 -18 -20 -39
-39 -31 -18 7 -20 43 -2 49 17 6 34 -2 41 -18z"/>
<path d="M852 544 c-15 -10 -22 -25 -22 -49 0 -55 69 -87 110 -50 14 13 86 15
508 15 l492 1 0 34 0 35 -488 0 c-414 0 -491 2 -508 15 -25 19 -64 19 -92 -1z
m68 -50 c0 -21 -4 -25 -22 -22 -15 2 -24 11 -26 26 -3 18 1 22 22 22 21 0 26
-5 26 -26z"/>
<path d="M63 490 c-48 -19 -40 -107 11 -125 22 -8 35 -5 66 13 37 21 50 22
268 22 l229 0 23 -25 c13 -14 22 -25 19 -26 -2 0 -49 -2 -104 -3 -78 -1 -106
3 -132 16 -44 24 -65 23 -91 -5 -26 -27 -28 -54 -6 -85 18 -26 84 -31 104 -7
11 13 84 15 546 15 l534 0 0 60 0 61 -127 -3 c-124 -3 -128 -4 -131 -25 l-3
-23 -244 0 -244 0 -54 55 -54 55 -255 0 c-240 0 -257 1 -281 20 -27 22 -40 23
-74 10z m57 -40 c12 -7 12 -13 4 -27 -23 -38 -66 -19 -50 22 6 17 24 19 46 5z
m305 -135 c0 -22 -31 -33 -47 -17 -17 17 -1 44 24 40 15 -2 23 -10 23 -23z"/>
<path d="M1284 207 c-3 -8 -4 -52 -2 -98 l3 -84 120 0 120 0 0 95 0 95 -118 3
c-92 2 -119 0 -123 -11z"/>
</g>
</svg>
