<?xml version="1.0" standalone="no"?>
<!DOCTYPE svg PUBLIC "-//W3C//DTD SVG 20010904//EN"
 "http://www.w3.org/TR/2001/REC-SVG-20010904/DTD/svg10.dtd">
<svg version="1.0" xmlns="http://www.w3.org/2000/svg"
 width="500.000000pt" height="500.000000pt" viewBox="0 0 500.000000 500.000000"
 preserveAspectRatio="xMidYMid meet">

<g transform="translate(0.000000,500.000000) scale(0.100000,-0.100000)"
fill="#000000" stroke="none">
<path d="M1602 3454 c-27 -19 -30 -74 -4 -96 29 -25 47 -27 88 -7 32 15 64 18
173 19 118 0 138 -2 167 -21 19 -11 34 -25 34 -30 0 -15 -122 -11 -139 5 -46
42 -121 15 -121 -43 0 -43 31 -65 77 -56 21 4 121 9 223 12 l184 4 -24 -26
-23 -25 -332 0 c-276 0 -334 2 -351 15 -30 23 -90 19 -108 -7 -21 -30 -20 -50
5 -82 23 -30 58 -34 93 -10 21 13 74 15 362 15 226 0 344 4 358 11 12 6 43 32
69 57 l48 46 437 5 437 5 0 110 0 110 -375 0 -375 0 -3 -77 -3 -78 -162 0
-162 0 -70 60 -70 60 -156 0 c-141 0 -159 2 -182 20 -30 24 -65 26 -95 4z m67
-37 c15 -19 -10 -53 -33 -44 -16 6 -22 38 -9 50 10 11 30 8 42 -6z m221 -117
c12 -7 12 -13 4 -27 -23 -38 -66 -19 -50 22 6 17 24 19 46 5z m-376 -116 c21
-8 21 -43 0 -51 -8 -3 -23 1 -31 10 -13 13 -14 19 -3 31 14 18 13 18 34 10z"/>
<path d="M2505 3179 c-4 -6 -4 -31 0 -55 3 -25 3 -58 0 -74 l-7 -30 -313 0
c-266 0 -314 2 -325 15 -17 21 -73 19 -93 -3 -53 -58 26 -145 89 -97 16 12
113 14 666 15 l648 0 6 24 c3 14 3 30 -1 35 -4 7 -77 11 -209 11 l-204 0 4 68
c5 107 12 102 -131 102 -77 0 -126 -4 -130 -11z m-661 -184 c6 -18 -20 -39
-39 -31 -18 7 -20 43 -2 49 17 6 34 -2 41 -18z"/>
<path d="M2082 2914 c-30 -21 -30 -77 0 -98 28 -20 67 -20 88 -1 14 13 86 15
508 15 l492 1 0 34 0 35 -488 0 c-414 0 -491 2 -508 15 -25 19 -64 19 -92 -1z
m68 -50 c0 -21 -4 -25 -22 -22 -15 2 -24 11 -26 26 -3 18 1 22 22 22 21 0 26
-5 26 -26z"/>
<path d="M1293 2860 c-48 -19 -40 -107 11 -125 22 -8 35 -5 66 13 37 21 50 22
268 22 l229 0 23 -25 c13 -14 22 -25 19 -26 -2 0 -49 -2 -104 -3 -78 -1 -106
3 -132 16 -44 24 -65 23 -91 -5 -26 -27 -28 -54 -6 -85 18 -26 84 -31 104 -7
11 13 84 15 546 15 l534 0 0 60 0 61 -127 -3 c-124 -3 -128 -4 -131 -25 l-3
-23 -244 0 -244 0 -54 55 -54 55 -255 0 c-240 0 -257 1 -281 20 -27 22 -40 23
-74 10z m57 -40 c12 -7 12 -13 4 -27 -23 -38 -66 -19 -50 22 6 17 24 19 46 5z
m305 -135 c0 -22 -31 -33 -47 -17 -17 17 -1 44 24 40 15 -2 23 -10 23 -23z"/>
<path d="M2514 2577 c-3 -8 -4 -52 -2 -98 l3 -84 120 0 120 0 0 95 0 95 -118
3 c-92 2 -119 0 -123 -11z"/>
<path d="M1830 2201 c-88 -27 -133 -87 -134 -176 -1 -105 68 -165 188 -165
130 0 197 56 199 168 2 94 -29 142 -112 170 -38 13 -103 14 -141 3z m140 -78
c27 -24 31 -35 32 -81 0 -32 -6 -62 -16 -77 -53 -81 -180 -66 -207 25 -10 33
-9 47 5 85 21 53 52 74 113 75 33 0 50 -6 73 -27z"/>
<path d="M1096 2183 c-4 -16 -10 -276 -7 -311 1 -9 12 -12 34 -10 l32 3 3 67
3 67 72 3 c69 3 72 4 72 28 0 24 -3 25 -68 28 l-68 3 3 42 3 42 78 3 c74 3 77
4 77 27 l0 25 -114 0 c-101 0 -115 -2 -120 -17z"/>
<path d="M1387 2078 c-4 -66 -7 -143 -7 -170 l0 -49 33 3 32 3 9 143 9 142 39
0 c51 0 78 -15 78 -44 0 -30 -30 -56 -63 -56 -18 0 -27 -5 -27 -15 0 -20 69
-158 84 -167 16 -11 66 -10 66 2 0 5 -16 38 -35 73 -19 35 -35 66 -35 69 0 3
13 11 29 16 44 16 66 65 52 114 -15 50 -37 58 -160 58 l-98 0 -6 -122z"/>
<path d="M2147 2078 c-4 -66 -7 -143 -7 -170 l0 -49 33 3 32 3 5 112 c3 62 8
115 11 118 4 3 39 -48 80 -112 l74 -118 45 0 45 0 6 60 c4 33 9 107 10 165 l4
105 -35 0 -35 0 -3 -105 c-1 -58 -6 -108 -11 -113 -4 -4 -32 29 -61 75 -103
162 -90 148 -141 148 l-46 0 -6 -122z"/>
<path d="M2524 2185 c-13 -32 4 -45 57 -45 l51 0 -7 -140 -7 -140 35 0 c23 0
37 6 41 16 3 9 6 67 6 129 0 133 7 146 69 138 33 -5 40 -2 46 16 3 11 3 25 0
31 -4 6 -63 10 -146 10 -115 0 -141 -3 -145 -15z"/>
<path d="M2856 2133 c-3 -37 -9 -114 -12 -171 l-7 -103 119 3 119 3 3 27 3 27
-78 3 -78 3 1 30 c1 17 3 77 5 135 l3 105 -36 3 -35 3 -7 -68z"/>
<path d="M3137 2193 c-3 -5 -8 -81 -12 -170 l-7 -163 35 0 c20 0 38 3 40 8 3
4 8 80 12 170 l7 162 -35 0 c-20 0 -38 -3 -40 -7z"/>
<path d="M3286 2138 c-3 -35 -7 -110 -8 -168 l-3 -105 33 -3 32 -3 1 63 c1 35
4 90 8 123 l6 60 79 -123 78 -122 44 0 c53 0 52 -5 57 193 l3 147 -31 0 c-32
0 -32 0 -39 -61 -3 -34 -6 -86 -6 -115 0 -30 -4 -54 -8 -54 -5 0 -41 52 -81
115 l-73 115 -43 0 -43 0 -6 -62z"/>
<path d="M3696 2188 c-3 -7 -7 -84 -11 -171 l-6 -158 123 3 123 3 3 28 3 27
-86 0 -86 0 3 43 3 42 75 5 c67 4 75 7 75 25 0 18 -8 20 -73 23 l-73 3 3 42
c3 47 -3 44 116 46 49 1 52 3 52 26 l0 25 -120 0 c-88 0 -122 -3 -124 -12z"/>
<path d="M2815 1780 c-4 -7 183 -10 554 -10 367 0 561 3 561 10 0 7 -191 10
-554 10 -359 0 -557 -4 -561 -10z"/>
</g>
</svg>
